<?xml version="1.0" standalone="no"?>
<!DOCTYPE svg PUBLIC "-//W3C//DTD SVG 20010904//EN"
 "http://www.w3.org/TR/2001/REC-SVG-20010904/DTD/svg10.dtd">
<svg version="1.0" xmlns="http://www.w3.org/2000/svg"
 width="859.000000pt" height="446.000000pt" viewBox="0 0 859.000000 446.000000"
 preserveAspectRatio="xMidYMid meet">

<g transform="translate(0.000000,446.000000) scale(0.100000,-0.100000)"
fill="#000000" stroke="none">
<path d="M5858 2853 c-3 -4 -61 -174 -128 -378 -68 -203 -136 -397 -151 -429
-29 -60 -27 -96 5 -96 23 0 32 20 97 218 35 105 66 192 70 192 3 0 59 -96 124
-212 l119 -213 115 238 c63 130 117 237 120 237 3 0 38 -100 78 -223 l71 -222
166 -3 165 -2 -15 42 c-8 24 -79 225 -156 448 -77 223 -142 407 -143 409 -2 2
-62 -113 -133 -254 l-129 -258 -45 84 c-25 46 -66 125 -91 174 -81 162 -135
257 -139 248z"/>
<path d="M1329 2830 c-142 -25 -223 -107 -222 -225 0 -112 46 -178 221 -318
178 -142 210 -185 182 -238 -39 -73 -251 -64 -355 16 -40 30 -51 31 -65 5 -8
-15 -6 -24 9 -39 56 -56 177 -87 303 -78 201 14 326 155 289 323 -19 85 -72
150 -226 282 -159 135 -179 168 -135 212 36 36 161 19 233 -32 33 -23 62 -20
62 7 0 56 -175 107 -296 85z"/>
<path d="M1867 2823 c-4 -3 -7 -199 -7 -435 l0 -428 155 0 155 0 0 295 0 295
156 0 155 0 -2 -289 c0 -159 2 -294 5 -299 3 -6 15 -8 26 -5 19 5 20 14 20
298 l0 293 30 6 c21 4 30 11 30 26 0 16 -7 20 -30 20 l-29 0 -3 113 c-3 108
-4 112 -25 115 -14 2 -23 -2 -24 -10 0 -7 0 -59 1 -115 l1 -103 -155 0 -156 0
0 115 0 115 -148 0 c-82 0 -152 -3 -155 -7z"/>
<path d="M2747 2823 c-4 -3 -7 -199 -7 -435 l0 -428 278 0 c152 0 283 4 291 9
8 5 11 16 8 25 -5 13 -26 16 -132 16 l-125 0 0 270 0 270 106 0 c104 0 105 0
102 23 -3 21 -8 22 -105 25 l-103 3 0 91 0 91 118 -5 c64 -3 123 -3 130 -1 17
6 15 40 -4 47 -21 8 -549 8 -557 -1z"/>
<path d="M3487 2824 c-4 -4 -7 -200 -7 -436 l0 -428 268 0 c147 0 273 4 280 9
24 14 10 46 -18 43 -14 -1 -67 -5 -117 -9 l-93 -5 -2 413 -3 414 -151 3 c-82
1 -153 -1 -157 -4z"/>
<path d="M4050 2819 c0 -22 394 -889 400 -882 20 23 349 864 344 878 -4 9 -15
15 -26 13 -15 -2 -38 -51 -104 -218 -47 -118 -88 -218 -92 -222 -4 -4 -50 94
-102 218 l-95 224 -162 0 c-112 0 -163 -3 -163 -11z"/>
<path d="M4917 2823 c-4 -3 -7 -199 -7 -435 l0 -428 274 0 c151 0 281 3 290 6
9 3 16 15 16 25 0 18 -9 19 -130 19 l-130 0 0 270 0 270 104 0 c106 0 129 8
106 35 -9 11 -37 15 -111 15 l-99 0 0 91 0 91 127 -3 c119 -4 128 -3 131 15 2
10 -2 22 -10 27 -15 10 -551 12 -561 2z"/>
<path d="M6820 2395 l0 -435 269 0 c148 0 276 3 285 6 9 3 16 15 16 25 0 18
-9 19 -130 19 l-130 0 0 270 0 270 111 0 c109 0 110 0 107 23 -3 21 -8 22
-110 25 l-108 3 0 91 0 91 125 -5 c111 -4 127 -3 135 12 20 37 -4 40 -292 40
l-278 0 0 -435z"/>
<path d="M2924 1685 c-7 -18 12 -45 32 -45 8 0 14 -7 14 -16 0 -12 -7 -15 -25
-12 -14 3 -25 1 -25 -3 0 -5 14 -9 30 -9 25 0 30 4 30 23 0 16 -9 28 -25 35
-14 6 -25 17 -25 23 0 7 10 9 25 7 14 -3 25 -1 25 3 0 15 -50 10 -56 -6z"/>
<path d="M3002 1650 c0 -50 1 -52 9 -22 5 17 16 32 24 32 8 0 15 -13 18 -32 4
-32 4 -32 5 5 2 33 -1 37 -22 37 -15 0 -26 7 -29 18 -3 9 -5 -8 -5 -38z"/>
<path d="M3173 1650 c0 -30 2 -43 4 -27 2 15 2 39 0 55 -2 15 -4 2 -4 -28z"/>
<path d="M3823 1650 c0 -33 2 -42 4 -22 5 42 35 40 44 -3 5 -22 7 -24 8 -8 2
33 -9 53 -29 53 -10 0 -21 8 -23 18 -3 9 -4 -8 -4 -38z"/>
<path d="M4351 1653 c-1 -52 0 -53 28 -53 31 0 45 20 36 51 -6 18 -16 23 -42
20 -6 -1 -14 6 -16 16 -3 10 -5 -6 -6 -34z m53 -2 c10 -16 -5 -41 -25 -41 -19
0 -27 29 -12 43 9 10 31 9 37 -2z"/>
<path d="M4518 1683 c-2 -10 -1 -34 3 -53 l6 -35 2 33 c0 18 6 32 14 32 8 0 7
4 -3 10 -13 9 -13 11 0 20 13 8 13 10 -1 10 -9 0 -18 -8 -21 -17z"/>
<path d="M4906 1691 c-4 -7 -5 -15 -2 -18 9 -9 19 4 14 18 -4 11 -6 11 -12 0z"/>
<path d="M5313 1650 c0 -30 2 -43 4 -27 2 15 2 39 0 55 -2 15 -4 2 -4 -28z"/>
<path d="M4858 1678 c-6 -19 5 -71 17 -75 13 -4 11 65 -2 78 -7 7 -12 6 -15
-3z"/>
<path d="M5048 1680 c-5 -17 3 -80 11 -80 7 0 6 79 -2 86 -3 3 -7 0 -9 -6z"/>
<path d="M5428 1678 c-7 -22 6 -71 20 -74 7 -1 8 0 2 3 -14 6 -13 50 1 55 7 2
6 8 -4 16 -12 10 -16 10 -19 0z"/>
<path d="M1080 1640 l0 -40 855 0 855 0 0 40 0 40 -855 0 -855 0 0 -40z"/>
<path d="M3663 1673 c-19 -4 -23 -11 -23 -39 0 -19 5 -34 10 -34 6 0 10 12 10
26 0 15 8 33 18 40 9 7 15 13 12 12 -3 0 -15 -3 -27 -5z"/>
<path d="M4008 1672 c-14 -2 -18 -13 -16 -40 l1 -37 4 33 c3 23 9 32 23 32 14
0 20 -9 23 -32 l4 -33 1 31 c2 35 -14 53 -40 46z"/>
<path d="M4085 1666 c-24 -18 -16 -60 13 -64 12 -2 22 -7 22 -12 0 -5 -10 -11
-22 -13 -16 -4 -13 -5 7 -4 28 2 30 5 33 48 3 39 0 47 -17 52 -11 3 -27 -1
-36 -7z m40 -31 c0 -13 -8 -21 -22 -23 -19 -3 -23 1 -23 23 0 22 4 26 23 23
14 -2 22 -10 22 -23z"/>
<path d="M4948 1669 c-22 -12 -13 -35 15 -44 21 -7 20 -8 -8 -15 l-30 -9 29 2
c35 2 47 26 17 34 -26 7 -27 20 -3 25 9 2 13 6 7 10 -6 3 -18 2 -27 -3z"/>
<path d="M5190 1660 c-26 -26 -11 -60 25 -60 29 0 39 14 31 44 -8 33 -33 39
-56 16z m45 -25 c0 -13 -8 -21 -22 -23 -19 -3 -23 1 -23 23 0 22 4 26 23 23
14 -2 22 -10 22 -23z"/>
<path d="M5690 1640 l0 -40 855 0 855 0 0 40 0 40 -855 0 -855 0 0 -40z"/>
<path d="M3085 1660 c-4 -6 -4 -22 -1 -36 5 -17 13 -24 31 -24 13 0 27 4 30
10 3 6 -1 7 -9 4 -9 -3 -24 -3 -33 2 -15 6 -12 8 12 13 38 8 40 35 3 39 -14 2
-29 -2 -33 -8z m50 -10 c4 -6 -5 -10 -20 -10 -15 0 -24 4 -20 10 3 6 12 10 20
10 8 0 17 -4 20 -10z"/>
<path d="M3202 1639 c17 -40 29 -41 45 -1 7 17 9 32 5 32 -4 0 -13 -12 -19
-27 l-10 -28 -11 28 c-6 15 -14 27 -17 27 -3 0 1 -14 7 -31z"/>
<path d="M3274 1656 c-12 -30 1 -51 31 -53 18 -1 22 1 10 4 -33 8 -42 23 -14
23 31 0 39 7 32 26 -7 18 -52 18 -59 0z m46 -6 c0 -5 -9 -10 -21 -10 -11 0
-17 5 -14 10 3 6 13 10 21 10 8 0 14 -4 14 -10z"/>
<path d="M3391 1650 c-1 -32 9 -46 34 -52 18 -5 18 -6 -5 -16 -24 -10 -24 -11
-3 -11 12 -1 27 8 33 18 13 25 13 81 0 81 -5 0 -10 -14 -10 -31 0 -41 -32 -36
-41 6 -6 27 -7 28 -8 5z"/>
<path d="M3475 1659 c-4 -5 -4 -21 -1 -35 5 -17 13 -24 31 -24 29 0 47 27 34
52 -11 20 -54 24 -64 7z m55 -24 c0 -18 -5 -25 -19 -25 -11 0 -23 5 -26 10
-11 18 3 40 25 40 15 0 20 -7 20 -25z"/>
<path d="M3561 1653 c-2 -35 10 -53 35 -53 21 0 24 4 22 38 l-1 37 -4 -33 c-5
-42 -35 -40 -44 3 -5 22 -7 24 -8 8z"/>
<path d="M3744 1656 c-12 -30 1 -51 31 -53 28 -2 28 -1 5 5 -15 5 -25 15 -25
27 0 12 9 22 25 26 l25 7 -28 1 c-16 1 -30 -5 -33 -13z"/>
<path d="M3896 1655 c-10 -28 12 -55 45 -55 28 0 30 2 27 33 -3 28 -7 32 -34
35 -22 2 -33 -2 -38 -13z m54 -20 c0 -18 -5 -25 -19 -25 -11 0 -21 6 -24 13
-7 20 4 37 24 37 14 0 19 -7 19 -25z"/>
<path d="M4156 1655 c-9 -25 -9 -25 30 -25 28 0 35 3 32 18 -4 23 -53 29 -62
7z m54 -5 c0 -5 -9 -10 -20 -10 -11 0 -20 5 -20 10 0 6 9 10 20 10 11 0 20 -4
20 -10z"/>
<path d="M4240 1656 c0 -7 10 -21 23 -30 l22 -17 -27 4 c-15 2 -25 0 -22 -4 3
-5 16 -9 30 -9 31 0 32 25 2 42 l-23 12 25 7 25 7 -27 1 c-18 1 -28 -4 -28
-13z"/>
<path d="M4435 1659 c-4 -5 -4 -21 -1 -35 5 -18 13 -24 34 -23 20 1 22 2 7 6
-33 8 -42 23 -14 23 31 0 39 7 32 26 -6 16 -49 19 -58 3z m45 -9 c0 -5 -9 -10
-21 -10 -11 0 -17 5 -14 10 3 6 13 10 21 10 8 0 14 -4 14 -10z"/>
<path d="M4565 1650 c-8 -25 10 -50 35 -50 19 0 46 27 37 37 -4 3 -9 -2 -13
-11 -7 -17 -39 -22 -48 -7 -12 19 7 43 30 38 13 -2 21 0 18 4 -11 18 -53 9
-59 -11z"/>
<path d="M4651 1630 l1 -35 8 29 c5 16 15 33 22 37 8 5 5 8 -10 6 -18 -1 -22
-7 -21 -37z"/>
<path d="M4705 1660 c-4 -6 -4 -22 -1 -36 5 -17 13 -24 31 -24 13 0 27 4 30
10 3 6 -1 7 -9 4 -9 -3 -24 -3 -33 2 -15 6 -12 8 12 13 38 8 40 35 3 39 -14 2
-29 -2 -33 -8z m50 -10 c3 -5 -3 -10 -14 -10 -12 0 -21 5 -21 10 0 6 6 10 14
10 8 0 18 -4 21 -10z"/>
<path d="M4833 1635 c0 -22 2 -30 4 -17 2 12 2 30 0 40 -3 9 -5 -1 -4 -23z"/>
<path d="M5094 1656 c-12 -31 0 -51 31 -51 27 0 30 3 30 30 0 25 -4 30 -28 33
-17 2 -29 -2 -33 -12z m54 -19 c4 -20 -25 -34 -40 -19 -15 15 -1 44 19 40 10
-2 19 -11 21 -21z"/>
<path d="M5341 1652 c-15 -28 5 -53 40 -50 26 2 29 6 29 35 0 30 -3 33 -30 33
-18 0 -33 -7 -39 -18z m49 -17 c0 -18 -5 -25 -20 -25 -15 0 -20 7 -20 25 0 18
5 25 20 25 15 0 20 -7 20 -25z"/>
<path d="M5475 1660 c-4 -6 -4 -22 -1 -36 5 -17 13 -24 31 -24 13 0 27 4 30
10 3 6 -1 7 -9 4 -9 -3 -24 -3 -33 2 -15 6 -12 8 12 13 38 8 40 35 3 39 -14 2
-29 -2 -33 -8z m50 -10 c3 -5 -3 -10 -14 -10 -12 0 -21 5 -21 10 0 6 6 10 14
10 8 0 18 -4 21 -10z"/>
<path d="M4168 1608 c6 -6 18 -8 28 -6 14 3 12 5 -9 10 -19 3 -25 2 -19 -4z"/>
</g>
</svg>
