<svg version="1.1" id="Layer_1" xmlns="http://www.w3.org/2000/svg" x="0px"
     y="0px"
     width="100%" viewBox="0 0 746 501" enable-background="new 0 0 746 501" xml:space="preserve">
<path fill="#ECE6D6" opacity="1.000000" stroke="none"
      d="
M532.000000,502.000000 
	C354.666656,502.000000 177.833328,502.000000 1.000000,502.000000 
	C1.000000,335.000000 1.000000,168.000000 1.000000,1.000000 
	C249.666672,1.000000 498.333344,1.000000 747.000000,1.000000 
	C747.000000,168.000000 747.000000,335.000000 747.000000,502.000000 
	C675.500000,502.000000 604.000000,502.000000 532.000000,502.000000 
M431.565735,438.416473 
	C429.588135,437.524261 427.610535,436.632019 424.887207,435.403381 
	C424.734894,438.891113 424.412476,441.040344 424.638489,443.130249 
	C424.766754,444.316101 425.793579,445.404785 426.415710,446.537201 
	C426.928070,445.481689 427.873199,444.425110 427.870514,443.370941 
	C427.862946,440.381165 428.563904,438.419830 432.233093,439.758850 
	C432.414154,446.619476 435.569702,448.524872 441.835297,445.368530 
	C441.406982,442.654633 441.900665,439.041290 440.324341,437.266113 
	C437.470093,434.051758 434.454346,436.624512 431.565735,438.416473 
M411.636719,439.134308 
	C411.624786,439.958740 411.278442,441.017548 411.662048,441.564789 
	C412.949219,443.401367 414.241852,446.028931 416.019318,446.494446 
	C417.662537,446.924774 420.990601,445.430511 421.649658,443.934784 
	C422.422455,442.180878 421.854126,438.673157 420.498291,437.473206 
	C419.157898,436.286957 416.098541,436.856323 413.816711,437.008240 
	C412.843903,437.073029 411.930786,438.033905 410.761200,437.851379 
	C410.346771,435.997375 409.932343,434.143372 409.267181,431.167786 
	C408.314819,431.787994 406.615356,432.542999 405.381470,433.767334 
	C402.275452,436.849243 405.403076,440.318817 405.137726,443.622986 
	C405.064026,444.540802 406.196686,445.555573 406.775879,446.525848 
	C407.322083,445.503296 407.871277,444.482361 408.413879,443.457886 
	C409.290619,441.802460 410.162994,440.144714 411.636719,439.134308 
M646.882446,374.928741 
	C660.679565,381.308563 672.976929,378.545776 681.430359,366.944366 
	C689.595398,355.738647 685.823730,338.960602 670.424316,335.515411 
	C647.371338,330.358063 622.107483,348.195557 620.033997,372.028168 
	C618.634827,388.109009 624.822327,400.283844 637.449646,404.397003 
	C649.201965,408.225189 660.907104,406.937958 671.641541,400.690582 
	C679.765991,395.962219 684.061707,386.713135 682.452332,380.663757 
	C677.187866,383.533081 672.019958,387.340546 666.226929,389.295593 
	C655.052795,393.066681 646.810547,387.139740 645.862915,375.132416 
	C645.862915,375.132416 646.148682,374.839691 646.882446,374.928741 
M164.098038,352.084290 
	C163.937057,351.942474 163.776077,351.800690 163.678436,350.869110 
	C163.977783,349.573120 164.379959,348.291229 164.559967,346.978882 
	C165.840134,337.644989 167.593765,328.334717 168.132568,318.955750 
	C168.464096,313.184937 164.185806,309.607697 158.707367,308.146179 
	C153.835526,306.846497 145.378677,309.913788 142.936035,313.738617 
	C142.427368,314.535156 142.555130,315.824066 142.604004,316.876068 
	C142.833817,321.822113 143.923828,326.871674 143.267746,331.688232 
	C141.361282,345.684418 138.524460,359.552429 136.537735,373.539642 
	C135.473618,381.031403 134.590332,388.725098 135.141937,396.216003 
	C135.608627,402.553741 141.254166,406.085205 147.638962,406.048492 
	C153.916138,406.012390 158.619598,402.744843 159.842468,396.403839 
	C160.605667,392.446350 160.715714,388.007050 159.730835,384.137238 
	C157.121857,373.886139 160.631134,365.851013 167.509888,358.743530 
	C170.068649,356.099701 173.455063,352.876953 176.861908,355.233978 
	C178.594482,356.432709 178.570160,361.204468 178.196808,364.219482 
	C177.076843,373.263153 174.665726,382.194122 174.130920,391.250122 
	C173.569077,400.764191 180.492447,406.459564 190.218445,406.020660 
	C199.593735,405.597626 206.531479,398.289062 206.040512,389.352936 
	C199.582275,392.734497 197.545761,391.450043 197.956650,383.895874 
	C198.154312,380.261810 198.945633,376.658844 199.490845,373.045197 
	C200.581970,365.813141 202.380890,358.608490 202.644180,351.347473 
	C203.183914,336.461517 193.961945,330.455994 181.156509,337.789978 
	C174.875626,341.387177 170.052917,347.530457 164.098038,352.084290 
M579.071533,334.067352 
	C579.198242,334.188721 579.324890,334.310059 579.292786,335.146942 
	C576.372498,345.026611 572.541016,354.749725 570.808838,364.833466 
	C569.316284,373.522217 569.028320,382.804504 570.365662,391.492218 
	C571.942871,401.738129 581.007446,406.958191 590.261658,405.016876 
	C601.049500,402.753845 609.095947,389.702087 606.768066,380.136536 
	C603.930176,381.790009 600.672852,385.274109 597.583496,385.130981 
	C592.435364,384.892517 592.938293,379.278076 592.611572,375.551147 
	C591.166260,359.066162 595.118225,343.119568 598.165222,327.115326 
	C598.339172,326.201813 600.614319,325.088531 601.907959,325.093201 
	C607.147339,325.112122 612.385315,325.532074 617.654663,325.805695 
	C616.499390,315.953674 609.626221,307.587952 600.480408,305.008331 
	C589.234253,301.836243 579.818726,305.732300 571.584717,313.152649 
	C558.375244,325.056824 551.869507,340.929138 546.000061,357.141083 
	C545.497009,358.530670 544.923645,359.894867 544.382996,361.270874 
	C542.938110,358.554138 542.494141,356.137054 541.983154,353.734222 
	C539.233765,340.805389 535.583191,328.201141 527.988159,317.144196 
	C523.439392,310.522003 517.862000,304.836975 509.422882,304.087006 
	C496.760468,302.961700 485.360901,316.317413 486.997375,328.531219 
	C490.346313,326.767029 493.806305,324.008545 497.689423,323.138458 
	C502.415741,322.079468 504.157440,324.625519 502.587006,329.185852 
	C501.343994,332.795410 499.680786,336.260925 498.188873,339.783966 
	C493.326050,351.266937 488.138550,362.626038 483.705994,374.272614 
	C480.967773,381.467438 479.679718,389.100311 482.942627,396.697479 
	C485.351410,402.305878 491.057068,405.758209 497.370544,405.371704 
	C504.272247,404.949188 510.158020,400.687256 511.573120,394.741028 
	C511.902283,393.357971 511.382812,391.661346 510.908447,390.222839 
	C510.030945,387.561676 507.705353,384.804260 508.068481,382.402222 
	C510.180084,368.432556 512.898499,354.554596 515.411865,340.645660 
	C516.126587,340.599945 516.841370,340.554230 517.556091,340.508514 
	C521.334778,348.965302 525.071167,357.441254 528.905884,365.872559 
	C531.811523,372.261139 533.615479,378.614471 529.648376,385.277313 
	C529.081421,386.229523 529.043640,387.509491 528.815491,388.648682 
	C526.450012,400.455688 532.674927,406.627655 544.539978,404.424194 
	C549.195190,403.559662 552.279724,400.984711 552.976685,396.451508 
	C553.546387,392.745972 553.976746,388.647125 552.977112,385.148926 
	C550.841553,377.675323 552.380066,371.089111 555.842529,364.585571 
	C558.421326,359.741730 560.410095,354.450806 563.695190,350.148163 
	C568.182068,344.271606 573.650757,339.144623 579.071533,334.067352 
M114.760178,355.703827 
	C108.101425,351.609924 101.393776,347.592834 94.800529,343.396027 
	C90.154381,340.438599 87.692047,336.048889 87.277420,330.545410 
	C86.865685,325.080170 90.283424,320.750946 95.636551,319.923492 
	C100.799805,319.125336 105.113602,321.984375 106.165756,327.485046 
	C106.836906,330.993866 106.701584,334.656921 106.929504,338.277039 
	C114.806267,338.791565 121.449821,335.331512 124.523132,329.023010 
	C129.358383,319.097778 122.896187,307.650238 110.819656,305.042938 
	C97.665550,302.203003 85.571991,305.123749 74.941849,313.072845 
	C60.780239,323.662750 59.585056,340.077789 71.909981,352.793274 
	C75.587700,356.587524 80.066032,359.604797 84.170448,362.986664 
	C88.018631,366.157410 92.159508,369.045868 95.614990,372.599701 
	C99.031044,376.113037 99.458954,380.736145 97.361031,385.166870 
	C95.378281,389.354401 91.921951,392.038696 87.109764,391.885956 
	C82.154121,391.728577 79.380173,388.432037 77.766251,384.086212 
	C76.960968,381.917908 76.143509,379.688354 75.829124,377.417572 
	C75.223129,373.040619 74.970596,368.614716 74.563644,364.122437 
	C68.243004,364.160126 63.328617,366.543335 59.477787,371.143585 
	C48.796593,383.903595 55.595268,402.449280 72.736168,405.495575 
	C89.412231,408.459198 104.636436,404.368134 116.445549,391.574310 
	C126.487602,380.694946 129.086838,366.059204 114.760178,355.703827 
M353.752563,242.009109 
	C364.414215,242.008652 375.077148,242.100479 385.736725,241.951828 
	C388.961914,241.906860 390.186035,242.939270 390.084686,246.238998 
	C389.890350,252.563461 390.028076,258.898163 390.030579,265.228607 
	C390.031769,268.227203 389.592529,271.321472 390.207428,274.189148 
	C390.586975,275.959412 392.576416,277.384491 393.843109,278.964539 
	C394.896332,277.406525 396.594177,275.951385 396.862732,274.268188 
	C397.355255,271.181396 397.005371,267.960083 397.005554,264.794861 
	C397.005981,257.353699 397.005676,249.912552 397.005676,242.664139 
	C414.610260,238.641556 420.969360,230.563950 420.969849,213.007599 
	C420.970337,196.515106 420.958496,180.022614 420.987122,163.530167 
	C420.990082,161.814835 421.230896,160.099930 421.364014,158.349243 
	C431.106934,159.780746 436.928619,166.258682 437.002350,175.383698 
	C437.096619,187.044312 437.027435,198.706223 437.030823,210.367584 
	C437.031525,212.699783 436.571533,215.168488 437.196350,217.321014 
	C437.696106,219.042557 439.520508,220.379593 440.756989,221.887283 
	C441.831360,220.459335 443.127441,219.139572 443.896912,217.562820 
	C444.358063,216.617920 444.003113,215.271362 444.003265,214.105331 
	C444.004944,201.944199 443.680267,189.772293 444.084595,177.624619 
	C444.613556,161.732117 434.211182,151.356552 418.680145,151.186554 
	C386.198853,150.830994 353.710052,150.933441 321.226135,151.139023 
	C303.903046,151.248657 295.235077,164.778061 295.885162,177.773468 
	C296.425476,188.574829 295.994080,199.424728 295.996918,210.253128 
	C295.997620,212.918442 295.641663,215.660706 296.171478,218.218063 
	C296.455811,219.590485 298.120209,221.290375 299.456268,221.609314 
	C300.303680,221.811615 302.031311,219.929382 302.732330,218.638794 
	C303.300385,217.593018 302.963043,216.035431 302.964203,214.704803 
	C302.975708,201.544128 302.888123,188.382706 303.004517,175.223038 
	C303.091187,165.424286 308.935547,159.326233 319.030029,158.680923 
	C319.030029,160.508743 319.029968,162.304688 319.029999,164.100632 
	C319.030457,181.759247 318.978638,199.418106 319.056915,217.076385 
	C319.088440,224.190369 321.099091,230.861267 326.909210,235.210434 
	C331.521210,238.662750 337.005768,240.949402 342.994324,244.244019 
	C342.994324,244.738312 342.993896,246.548553 342.994415,248.358810 
	C342.996918,257.188110 342.859070,266.022003 343.146118,274.842041 
	C343.191925,276.249115 345.144501,277.594147 346.215607,278.967834 
	C347.446808,277.700989 348.983307,276.602020 349.804108,275.109467 
	C350.371307,274.078156 349.966217,272.503052 349.967194,271.170929 
	C349.973328,262.841400 349.839600,254.507736 350.099976,246.186310 
	C350.144226,244.772339 351.868469,243.410950 353.752563,242.009109 
M356.749298,336.466675 
	C344.621552,332.257874 331.621613,340.094482 330.690704,352.423676 
	C331.357727,352.042847 331.865051,351.568237 332.442017,351.457886 
	C334.290253,351.104492 336.996307,350.018982 337.831390,350.820496 
	C339.053833,351.993744 339.436829,354.595795 339.284760,356.518280 
	C339.051422,359.467529 337.940796,362.335449 337.410919,365.275452 
	C335.911743,373.593994 333.768951,381.888947 333.291382,390.273590 
	C332.800812,398.886444 338.024231,404.683136 345.862793,405.747070 
	C349.601013,406.254425 353.605164,406.282654 357.282166,405.524994 
	C384.743439,399.866455 402.921631,375.621796 400.957916,347.633911 
	C400.099274,335.396271 392.638336,331.142303 381.809723,336.751526 
	C380.486511,337.436951 379.258331,338.317230 378.027283,339.166870 
	C375.793793,340.708344 375.229248,342.470276 375.544281,345.473297 
	C376.966003,359.025879 376.784393,372.509674 369.243103,384.624268 
	C367.010315,388.211029 363.484344,392.013153 359.232269,389.777374 
	C357.231201,388.725250 356.343872,383.358795 356.807922,380.221924 
	C358.265381,370.369202 360.719696,360.668457 362.556030,350.865417 
	C363.597046,345.308167 362.755157,340.194489 356.749298,336.466675 
M227.832016,402.817841 
	C240.615372,408.551361 253.198441,407.369843 265.281586,401.034912 
	C273.626404,396.659882 278.015381,387.605743 276.697113,380.720551 
	C271.329407,383.601379 266.022217,387.519379 260.070923,389.413483 
	C248.854675,392.983185 239.375290,385.674805 240.311646,374.834839 
	C241.425201,375.260681 242.480225,375.640625 243.517349,376.064392 
	C255.951859,381.144775 268.610107,377.483246 276.033813,366.411469 
	C284.668213,353.534027 278.447052,338.528320 264.600525,335.466766 
	C244.819748,331.093079 222.332092,343.754303 216.082352,363.817688 
	C210.905685,380.436218 214.632935,393.372650 227.832016,402.817841 
M425.728638,342.175323 
	C418.828491,346.923950 413.894104,353.218536 410.599823,360.918091 
	C403.517822,377.470673 408.066040,395.445557 421.322052,402.837738 
	C432.809570,409.243744 453.587006,406.804779 463.090973,397.726349 
	C468.149017,392.894867 471.153961,387.066254 470.578705,380.410248 
	C464.899963,383.493286 459.640656,387.456512 453.720062,389.330322 
	C441.720856,393.127838 432.730316,385.385101 433.574982,374.550629 
	C448.634491,381.145233 460.566803,378.634277 469.043579,367.038391 
	C477.214386,355.861053 473.977936,338.344543 457.760071,335.582764 
	C446.515717,333.667908 435.907776,335.124756 425.728638,342.175323 
M287.919342,382.318176 
	C287.945984,385.637024 287.643585,388.997986 288.061584,392.266785 
	C289.270813,401.723541 296.786133,407.309082 306.062286,405.941315 
	C314.132874,404.751343 321.251282,396.496765 320.475403,389.726349 
	C318.479614,390.304016 315.185059,391.969177 314.596100,391.289581 
	C313.062592,389.520020 312.364929,386.773560 312.003815,384.318268 
	C311.699371,382.248291 312.155365,380.003082 312.585510,377.898956 
	C314.881866,366.666077 317.638611,355.513397 319.516968,344.213440 
	C320.923004,335.754822 321.940491,327.105011 321.814209,318.559784 
	C321.719055,312.120209 317.037811,308.331482 311.340820,307.712433 
	C304.171356,306.933380 296.521118,312.993378 296.718048,318.639832 
	C296.970734,325.884552 297.244537,333.281555 296.108612,340.389130 
	C293.908325,354.156525 290.729126,367.767487 287.919342,382.318176 
M373.985565,89.524544 
	C363.716339,88.998611 353.950317,90.954422 344.717316,96.011017 
	C340.771790,90.105621 337.304321,84.414253 333.256958,79.170502 
	C332.077820,77.642822 329.243378,77.392784 327.167694,76.557098 
	C327.285797,78.650986 327.007690,80.874176 327.636658,82.801323 
	C328.230865,84.622047 329.774384,86.134422 330.907532,87.777466 
	C333.600098,91.681717 336.296875,95.583061 339.113922,99.662148 
	C327.930176,109.181236 321.265991,120.476723 319.326721,134.484039 
	C318.403076,141.155731 319.687653,143.034470 326.326904,143.039108 
	C345.138123,143.052277 363.949341,143.044312 382.760559,143.043900 
	C393.581177,143.043655 404.402252,142.985916 415.222137,143.075623 
	C418.392487,143.101883 420.721191,142.071854 420.507172,138.693176 
	C419.934631,129.654312 418.229034,120.829750 412.784363,113.300316 
	C409.304047,108.487396 405.381042,103.994576 401.420715,99.064697 
	C402.257751,97.618462 403.174011,95.860336 404.251831,94.207565 
	C406.977173,90.028542 409.983307,86.013680 412.417480,81.675262 
	C413.150024,80.369644 412.372437,78.216751 412.286652,76.451996 
	C410.501526,76.860634 408.562592,76.970726 406.985657,77.783363 
	C405.942627,78.320869 405.405151,79.857170 404.665527,80.962532 
	C401.366150,85.893486 398.075500,90.830276 395.331482,94.941246 
	C387.916901,93.073265 381.366974,91.423126 373.985565,89.524544 
M351.400146,446.661896 
	C351.516846,444.683044 352.086700,442.588135 351.618164,440.759216 
	C351.181091,439.053009 349.497528,436.253174 348.612915,436.345032 
	C346.158386,436.599854 343.060486,437.533691 341.726562,439.324066 
	C340.814758,440.547852 342.137421,443.790497 343.060028,445.864075 
	C343.465881,446.776245 345.361328,447.025604 346.984009,447.758118 
	C344.903748,448.340210 343.382355,448.765900 341.212189,449.373169 
	C346.512665,452.125671 348.325714,451.665161 351.400146,446.661896 
M380.739410,445.455658 
	C383.527557,445.526672 386.570862,446.280334 388.994019,445.374695 
	C390.168793,444.935608 391.161682,440.960541 390.464691,439.356323 
	C389.646027,437.472107 386.902679,436.424164 384.994019,435.013519 
	C384.830719,435.237427 384.667389,435.461334 384.504089,435.685211 
	C383.795044,434.091919 383.085999,432.498627 382.376984,430.905334 
	C381.711456,431.009308 381.045959,431.113281 380.380463,431.217285 
	C380.380463,435.709045 380.380463,440.200836 380.739410,445.455658 
M255.915588,441.503906 
	C255.913177,444.927673 257.720642,446.830780 261.042236,446.800446 
	C264.085297,446.772614 267.046234,445.374725 266.676361,442.006500 
	C266.445190,439.901886 264.542480,436.976837 262.687592,436.274445 
	C259.360107,435.014435 256.657867,436.844849 255.915588,441.503906 
M515.016418,437.329224 
	C510.448120,435.158325 506.769318,435.926331 506.185638,439.624634 
	C505.875488,441.589844 506.592041,444.880615 507.942261,445.651520 
	C509.652863,446.628143 512.911316,446.397369 514.725098,445.346283 
	C517.635071,443.659912 517.252625,440.624756 515.016418,437.329224 
M503.959442,439.878937 
	C502.640015,436.132904 499.657227,434.856750 496.514099,436.559113 
	C494.833069,437.469574 493.217438,440.675476 493.545410,442.488525 
	C493.852905,444.188232 496.680603,446.483917 498.541504,446.623657 
	C502.019257,446.884827 504.501007,444.790131 503.959442,439.878937 
M308.193390,432.472290 
	C305.731171,429.651642 305.250702,431.988159 305.140930,433.830719 
	C304.934753,437.292053 304.993683,440.777466 305.136810,444.244843 
	C305.168579,445.014801 306.006989,445.751495 306.473938,446.503510 
	C307.117401,445.750122 308.077637,445.091370 308.336975,444.223267 
	C308.844269,442.525177 308.960327,440.710236 309.238342,438.943695 
	C309.853516,438.924561 310.468658,438.905426 311.083832,438.886292 
	C311.361908,440.752441 311.568390,442.633606 311.954773,444.477051 
	C312.101379,445.176697 312.537506,445.952789 313.087189,446.372131 
	C313.355835,446.577026 314.418121,446.220673 314.726685,445.816895 
	C316.816803,443.081879 314.289581,437.102356 310.859314,435.938568 
	C309.840179,435.592865 309.181885,434.183624 308.193390,432.472290 
M184.452835,443.936981 
	C186.812653,438.473419 179.449615,439.261200 178.775909,435.231201 
	C180.698334,435.231201 182.320908,435.231201 183.943481,435.231201 
	C184.090897,434.688171 184.238297,434.145111 184.385712,433.602081 
	C182.675049,433.091614 180.873322,431.993896 179.280167,432.241028 
	C177.781830,432.473450 175.533249,433.995270 175.374176,435.184998 
	C175.175385,436.671906 176.559021,438.570618 177.667236,439.968231 
	C178.541153,441.070496 180.031891,441.683655 181.248672,442.514008 
	C179.907196,443.594788 179.011490,443.725739 178.127319,443.670807 
	C177.144867,443.609772 176.172928,443.379395 174.737366,443.149048 
	C177.431976,447.773712 179.433365,447.958038 184.452835,443.936981 
M252.024063,436.823639 
	C251.304733,438.761200 250.585403,440.698792 249.710236,443.056122 
	C248.389084,440.392975 247.313919,438.225708 245.849213,435.273224 
	C242.598755,440.654755 246.942886,443.462250 247.716324,446.884796 
	C246.360565,447.925659 245.147293,448.857117 243.387375,450.208221 
	C244.656036,450.651276 245.219742,451.033569 245.765762,451.009766 
	C250.514740,450.802673 256.049072,441.191559 253.903244,436.861786 
	C253.756943,436.566620 253.042587,436.552979 252.024063,436.823639 
M194.145218,446.110413 
	C195.067978,445.648956 196.636932,445.358795 196.811829,444.699066 
	C198.290314,439.121948 196.281494,436.398315 190.521576,435.773712 
	C190.073959,434.178070 189.626328,432.582428 189.178711,430.986786 
	C188.686142,431.038574 188.193573,431.090363 187.701004,431.142151 
	C187.701004,436.194611 187.701004,441.247101 187.701004,446.299561 
	C188.095871,446.462250 188.490723,446.624939 188.885590,446.787628 
	C189.699875,444.135986 190.514175,441.484344 191.328461,438.832703 
	C191.851181,438.884460 192.373901,438.936249 192.896637,438.988037 
	C193.179947,441.143982 193.463257,443.299927 194.145218,446.110413 
M208.364410,445.480682 
	C208.280777,444.215088 208.419693,442.882294 208.062424,441.699310 
	C207.496948,439.826965 206.633774,436.551910 205.835266,436.533478 
	C203.767624,436.485901 200.846848,437.344116 199.820129,438.879517 
	C198.881592,440.283051 199.235672,444.278198 200.339066,444.943359 
	C202.344345,446.152222 205.328079,445.737946 208.364410,445.480682 
M353.819092,442.940338 
	C356.432220,447.544342 358.518768,448.050140 362.290771,445.704193 
	C362.636078,443.793884 363.350525,442.369446 362.981354,441.329712 
	C362.320007,439.467102 361.392609,436.941254 359.886536,436.291351 
	C356.583649,434.866150 354.403503,437.230927 353.819092,442.940338 
M318.003052,441.551727 
	C316.578583,446.546692 316.604248,446.561279 326.368835,446.142151 
	C326.579376,442.657562 328.093597,438.667114 324.054657,436.510773 
	C322.575714,435.721191 320.062897,436.868134 318.021729,437.131683 
	C318.101501,437.658386 318.181244,438.185089 318.261017,438.711792 
	C319.652405,438.786011 321.043793,438.860229 323.297638,438.980469 
	C321.169586,439.902557 319.860535,440.469788 318.003052,441.551727 
M558.142029,441.999969 
	C557.828552,440.216736 557.803589,437.047058 557.147461,436.910553 
	C555.188232,436.502899 551.827026,436.596436 551.135193,437.757996 
	C550.025879,439.620483 549.647217,443.099915 550.708069,444.813995 
	C552.601013,447.872742 555.934814,447.523438 559.177612,445.385468 
	C558.572510,444.282501 558.046265,443.323273 558.142029,441.999969 
M232.517548,435.982147 
	C228.240295,437.401947 226.226440,440.776001 228.108154,444.016510 
	C230.313339,447.814026 233.529144,447.548950 236.989410,445.588104 
	C236.604492,444.306763 235.657776,442.800476 236.057343,442.218567 
	C238.661026,438.426727 236.668610,436.974121 232.517548,435.982147 
M397.543488,435.987152 
	C395.862946,437.482544 393.424011,438.703247 392.750336,440.563324 
	C392.243256,441.963318 393.512115,445.091278 394.866638,445.819000 
	C396.758972,446.835571 399.467468,446.332977 402.047363,446.494202 
	C401.548828,444.156464 400.770660,442.752838 401.183777,442.070068 
	C403.389893,438.424164 401.376801,437.055176 397.543488,435.987152 
M529.877991,443.542633 
	C531.173340,449.925110 535.860046,444.679413 539.262146,446.042938 
	C538.827209,442.520294 538.015808,439.201294 536.310486,436.432953 
	C535.880554,435.735016 532.591064,436.798615 530.615723,437.052734 
	C530.688477,437.569275 530.761230,438.085815 530.834045,438.602356 
	C532.340820,438.721771 533.847595,438.841187 535.294861,438.955902 
	C533.432068,440.289703 531.703064,441.527710 529.877991,443.542633 
M275.551727,441.498993 
	C274.919983,442.278961 274.288239,443.058960 273.656525,443.838959 
	C273.155945,443.072601 272.411407,442.366364 272.204865,441.527588 
	C271.754639,439.699371 271.578369,437.803711 271.290161,435.935608 
	C270.682587,435.991516 270.075012,436.047394 269.467438,436.103271 
	C269.467438,439.032013 268.331299,442.922638 269.775574,444.628662 
	C271.330811,446.465759 275.304413,446.255463 279.226318,447.173248 
	C278.837494,442.661591 278.549072,439.314819 278.260651,435.968048 
	C277.557983,435.993103 276.855316,436.018158 276.152649,436.043213 
	C275.961151,437.580109 275.769623,439.117004 275.551727,441.498993 
M336.853363,436.418121 
	C329.223633,435.861053 327.975891,437.062439 329.111908,444.179962 
	C329.247925,445.032288 330.267456,445.743591 330.877502,446.520233 
	C331.381226,445.789642 332.134369,445.121857 332.337402,444.315582 
	C332.775848,442.574493 332.931946,440.762329 333.203583,438.979248 
	C333.819550,438.954834 334.435516,438.930450 335.051483,438.906036 
	C335.332275,440.774078 335.489838,442.673401 335.952515,444.495270 
	C336.146790,445.260254 336.986664,445.861359 337.533051,446.537018 
	C338.033661,445.823364 339.019714,445.057037 338.949066,444.405304 
	C338.674194,441.870331 338.063904,439.371735 336.853363,436.418121 
M477.962616,443.532013 
	C476.861877,442.067749 475.761139,440.603516 474.703369,439.196442 
	C475.449707,438.840240 476.466461,438.354980 477.483215,437.869751 
	C477.367950,437.311554 477.252686,436.753357 477.137451,436.195160 
	C475.292267,436.431671 473.317902,436.356445 471.659485,437.043640 
	C470.894745,437.360504 470.426849,439.159546 470.395355,440.302307 
	C470.347137,442.053528 470.792419,443.818298 471.140930,446.417786 
	C473.248260,447.462036 475.848022,447.471771 477.962616,443.532013 
M216.272736,437.184906 
	C216.573868,438.928131 216.510239,440.856384 217.275253,442.364227 
	C218.094467,443.978882 219.694061,445.197540 220.953033,446.589050 
	C222.253052,445.245911 224.009018,444.108246 224.731476,442.504852 
	C225.536133,440.718994 225.400467,438.509430 225.674133,436.484314 
	C225.101746,436.411926 224.529358,436.339539 223.956970,436.267151 
	C223.127197,438.230347 222.297424,440.193512 221.545837,441.971710 
	C219.823029,440.048798 218.309647,438.359619 216.272736,437.184906 
M459.730865,441.521973 
	C460.379913,440.119293 461.028931,438.716644 461.640564,437.394836 
	C460.458984,435.902374 459.282715,434.416595 458.120758,432.948944 
	C452.674561,436.937103 456.501953,441.212189 456.987701,445.093506 
	C457.090607,445.915894 459.800262,446.412079 461.308899,447.058563 
	C461.551971,446.628265 461.795044,446.197968 462.038116,445.767639 
	C461.283173,444.617035 460.528198,443.466431 459.730865,441.521973 
M367.965149,444.068512 
	C366.962433,444.315460 365.959717,444.562378 364.957001,444.809296 
	C367.825073,447.343262 370.799438,447.775726 372.245758,444.751709 
	C372.859894,443.467743 370.918213,440.961365 370.157501,439.059082 
	C370.500885,438.767914 371.346405,438.050903 372.191956,437.333954 
	C371.062683,436.905609 369.827271,435.968018 368.830597,436.175781 
	C367.537720,436.445251 365.323456,438.096924 365.426697,438.341003 
	C366.231628,440.243835 367.498016,441.951477 367.965149,444.068512 
M491.252960,438.384979 
	C490.273682,436.584747 489.294373,434.784515 487.860931,432.149414 
	C486.384186,434.648712 484.700562,436.194183 484.791687,437.626770 
	C484.959564,440.266907 485.826996,443.029999 487.108856,445.352203 
	C487.647369,446.327789 489.981415,446.312195 490.672791,446.510345 
	C490.672791,443.240540 490.672791,441.058807 491.252960,438.384979 
M541.493286,438.942230 
	C541.789734,440.528687 541.942932,442.159058 542.412537,443.692505 
	C543.381592,446.857086 545.188965,447.826355 548.485413,445.452026 
	C544.374023,442.757751 545.730591,439.952118 547.435120,437.987061 
	C546.247864,436.040375 545.260742,434.421967 543.618530,431.729370 
	C542.397705,434.922394 541.737549,436.649109 541.493286,438.942230 
M296.743561,445.906464 
	C299.127014,447.081573 301.381348,447.543488 303.400635,445.578461 
	C301.219482,443.986359 299.660095,442.848114 298.100708,441.709839 
	C299.638336,440.287140 301.175934,438.864441 303.914154,436.330872 
	C300.957794,436.628571 298.415009,436.161560 296.868622,437.191162 
	C293.662811,439.325623 294.162689,442.484131 296.743561,445.906464 
M524.187195,437.657349 
	C524.360962,440.662354 524.534668,443.667358 524.745850,447.320312 
	C528.870422,444.094299 528.822754,433.996704 524.990662,430.727448 
	C524.684875,433.023926 524.436096,434.892059 524.187195,437.657349 
M281.251862,441.591766 
	C281.319489,442.918243 281.126160,444.346161 281.582916,445.521393 
	C281.766174,445.993011 284.149963,446.218842 284.224762,446.032349 
	C285.474365,442.915924 286.516510,439.716339 287.615326,436.504669 
	C285.952118,436.504669 284.104889,436.504669 281.780762,436.504669 
	C281.607666,437.905182 281.430634,439.337555 281.251862,441.591766 
M214.008743,441.231445 
	C213.840668,437.874817 213.672607,434.518188 213.504547,431.161560 
	C212.880325,431.201172 212.256119,431.240814 211.631897,431.280426 
	C211.631897,436.304626 211.631897,441.328857 211.631897,446.353058 
	C212.126358,446.424255 212.620819,446.495453 213.115295,446.566650 
	C213.412949,445.086426 213.710602,443.606201 214.008743,441.231445 
M449.709991,439.863068 
	C450.339478,442.081390 450.968964,444.299713 451.598419,446.518036 
	C452.066132,444.312561 452.541779,442.108704 452.992493,439.899780 
	C453.056427,439.586395 453.104767,439.197998 452.978088,438.930695 
	C452.545135,438.017120 452.030884,437.142059 451.547638,436.252350 
	C450.937897,437.185120 450.328186,438.117920 449.709991,439.863068 
z"/>
    <path fill="#B3592D" opacity="1.000000" stroke="none"
          d="
M578.698486,333.696289 
	C573.650757,339.144623 568.182068,344.271606 563.695190,350.148163 
	C560.410095,354.450806 558.421326,359.741730 555.842529,364.585571 
	C552.380066,371.089111 550.841553,377.675323 552.977112,385.148926 
	C553.976746,388.647125 553.546387,392.745972 552.976685,396.451508 
	C552.279724,400.984711 549.195190,403.559662 544.539978,404.424194 
	C532.674927,406.627655 526.450012,400.455688 528.815491,388.648682 
	C529.043640,387.509491 529.081421,386.229523 529.648376,385.277313 
	C533.615479,378.614471 531.811523,372.261139 528.905884,365.872559 
	C525.071167,357.441254 521.334778,348.965302 517.556091,340.508514 
	C516.841370,340.554230 516.126587,340.599945 515.411865,340.645660 
	C512.898499,354.554596 510.180084,368.432556 508.068481,382.402222 
	C507.705353,384.804260 510.030945,387.561676 510.908447,390.222839 
	C511.382812,391.661346 511.902283,393.357971 511.573120,394.741028 
	C510.158020,400.687256 504.272247,404.949188 497.370544,405.371704 
	C491.057068,405.758209 485.351410,402.305878 482.942627,396.697479 
	C479.679718,389.100311 480.967773,381.467438 483.705994,374.272614 
	C488.138550,362.626038 493.326050,351.266937 498.188873,339.783966 
	C499.680786,336.260925 501.343994,332.795410 502.587006,329.185852 
	C504.157440,324.625519 502.415741,322.079468 497.689423,323.138458 
	C493.806305,324.008545 490.346313,326.767029 486.997375,328.531219 
	C485.360901,316.317413 496.760468,302.961700 509.422882,304.087006 
	C517.862000,304.836975 523.439392,310.522003 527.988159,317.144196 
	C535.583191,328.201141 539.233765,340.805389 541.983154,353.734222 
	C542.494141,356.137054 542.938110,358.554138 544.382996,361.270874 
	C544.923645,359.894867 545.497009,358.530670 546.000061,357.141083 
	C551.869507,340.929138 558.375244,325.056824 571.584717,313.152649 
	C579.818726,305.732300 589.234253,301.836243 600.480408,305.008331 
	C609.626221,307.587952 616.499390,315.953674 617.654663,325.805695 
	C612.385315,325.532074 607.147339,325.112122 601.907959,325.093201 
	C600.614319,325.088531 598.339172,326.201813 598.165222,327.115326 
	C595.118225,343.119568 591.166260,359.066162 592.611572,375.551147 
	C592.938293,379.278076 592.435364,384.892517 597.583496,385.130981 
	C600.672852,385.274109 603.930176,381.790009 606.768066,380.136536 
	C609.095947,389.702087 601.049500,402.753845 590.261658,405.016876 
	C581.007446,406.958191 571.942871,401.738129 570.365662,391.492218 
	C569.028320,382.804504 569.316284,373.522217 570.808838,364.833466 
	C572.541016,354.749725 576.372498,345.026611 579.540405,334.580322 
	C579.745972,333.757629 579.703857,333.501587 579.661804,333.245544 
	C579.340698,333.395813 579.019592,333.546051 578.698486,333.696289 
z"/>
    <path fill="#B3592D" opacity="1.000000" stroke="none"
          d="
M115.048569,355.916260 
	C129.086838,366.059204 126.487602,380.694946 116.445549,391.574310 
	C104.636436,404.368134 89.412231,408.459198 72.736168,405.495575 
	C55.595268,402.449280 48.796593,383.903595 59.477787,371.143585 
	C63.328617,366.543335 68.243004,364.160126 74.563644,364.122437 
	C74.970596,368.614716 75.223129,373.040619 75.829124,377.417572 
	C76.143509,379.688354 76.960968,381.917908 77.766251,384.086212 
	C79.380173,388.432037 82.154121,391.728577 87.109764,391.885956 
	C91.921951,392.038696 95.378281,389.354401 97.361031,385.166870 
	C99.458954,380.736145 99.031044,376.113037 95.614990,372.599701 
	C92.159508,369.045868 88.018631,366.157410 84.170448,362.986664 
	C80.066032,359.604797 75.587700,356.587524 71.909981,352.793274 
	C59.585056,340.077789 60.780239,323.662750 74.941849,313.072845 
	C85.571991,305.123749 97.665550,302.203003 110.819656,305.042938 
	C122.896187,307.650238 129.358383,319.097778 124.523132,329.023010 
	C121.449821,335.331512 114.806267,338.791565 106.929504,338.277039 
	C106.701584,334.656921 106.836906,330.993866 106.165756,327.485046 
	C105.113602,321.984375 100.799805,319.125336 95.636551,319.923492 
	C90.283424,320.750946 86.865685,325.080170 87.277420,330.545410 
	C87.692047,336.048889 90.154381,340.438599 94.800529,343.396027 
	C101.393776,347.592834 108.101425,351.609924 115.048569,355.916260 
z"/>
    <path fill="#B3592D" opacity="1.000000" stroke="none"
          d="
M164.570282,352.521484 
	C170.052917,347.530457 174.875626,341.387177 181.156509,337.789978 
	C193.961945,330.455994 203.183914,336.461517 202.644180,351.347473 
	C202.380890,358.608490 200.581970,365.813141 199.490845,373.045197 
	C198.945633,376.658844 198.154312,380.261810 197.956650,383.895874 
	C197.545761,391.450043 199.582275,392.734497 206.040512,389.352936 
	C206.531479,398.289062 199.593735,405.597626 190.218445,406.020660 
	C180.492447,406.459564 173.569077,400.764191 174.130920,391.250122 
	C174.665726,382.194122 177.076843,373.263153 178.196808,364.219482 
	C178.570160,361.204468 178.594482,356.432709 176.861908,355.233978 
	C173.455063,352.876953 170.068649,356.099701 167.509888,358.743530 
	C160.631134,365.851013 157.121857,373.886139 159.730835,384.137238 
	C160.715714,388.007050 160.605667,392.446350 159.842468,396.403839 
	C158.619598,402.744843 153.916138,406.012390 147.638962,406.048492 
	C141.254166,406.085205 135.608627,402.553741 135.141937,396.216003 
	C134.590332,388.725098 135.473618,381.031403 136.537735,373.539642 
	C138.524460,359.552429 141.361282,345.684418 143.267746,331.688232 
	C143.923828,326.871674 142.833817,321.822113 142.604004,316.876068 
	C142.555130,315.824066 142.427368,314.535156 142.936035,313.738617 
	C145.378677,309.913788 153.835526,306.846497 158.707367,308.146179 
	C164.185806,309.607697 168.464096,313.184937 168.132568,318.955750 
	C167.593765,328.334717 165.840134,337.644989 164.559967,346.978882 
	C164.379959,348.291229 163.977783,349.573120 163.465546,351.496582 
	C163.261017,352.592926 163.269363,353.061798 163.277710,353.530670 
	C163.708572,353.194275 164.139435,352.857880 164.570282,352.521484 
z"/>
    <path fill="#D7AFB0" opacity="1.000000" stroke="none"
          d="
M353.284546,242.017181 
	C351.868469,243.410950 350.144226,244.772339 350.099976,246.186310 
	C349.839600,254.507736 349.973328,262.841400 349.967194,271.170929 
	C349.966217,272.503052 350.371307,274.078156 349.804108,275.109467 
	C348.983307,276.602020 347.446808,277.700989 346.215607,278.967834 
	C345.144501,277.594147 343.191925,276.249115 343.146118,274.842041 
	C342.859070,266.022003 342.996918,257.188110 342.994415,248.358810 
	C342.993896,246.548553 342.994324,244.738312 342.994324,244.244019 
	C337.005768,240.949402 331.521210,238.662750 326.909210,235.210434 
	C321.099091,230.861267 319.088440,224.190369 319.056915,217.076385 
	C318.978638,199.418106 319.030457,181.759247 319.029999,164.100632 
	C319.029968,162.304688 319.030029,160.508743 319.030029,158.680923 
	C308.935547,159.326233 303.091187,165.424286 303.004517,175.223038 
	C302.888123,188.382706 302.975708,201.544128 302.964203,214.704803 
	C302.963043,216.035431 303.300385,217.593018 302.732330,218.638794 
	C302.031311,219.929382 300.303680,221.811615 299.456268,221.609314 
	C298.120209,221.290375 296.455811,219.590485 296.171478,218.218063 
	C295.641663,215.660706 295.997620,212.918442 295.996918,210.253128 
	C295.994080,199.424728 296.425476,188.574829 295.885162,177.773468 
	C295.235077,164.778061 303.903046,151.248657 321.226135,151.139023 
	C353.710052,150.933441 386.198853,150.830994 418.680145,151.186554 
	C434.211182,151.356552 444.613556,161.732117 444.084595,177.624619 
	C443.680267,189.772293 444.004944,201.944199 444.003265,214.105331 
	C444.003113,215.271362 444.358063,216.617920 443.896912,217.562820 
	C443.127441,219.139572 441.831360,220.459335 440.756989,221.887283 
	C439.520508,220.379593 437.696106,219.042557 437.196350,217.321014 
	C436.571533,215.168488 437.031525,212.699783 437.030823,210.367584 
	C437.027435,198.706223 437.096619,187.044312 437.002350,175.383698 
	C436.928619,166.258682 431.106934,159.780746 421.364014,158.349243 
	C421.230896,160.099930 420.990082,161.814835 420.987122,163.530167 
	C420.958496,180.022614 420.970337,196.515106 420.969849,213.007599 
	C420.969360,230.563950 414.610260,238.641556 397.005676,242.664139 
	C397.005676,249.912552 397.005981,257.353699 397.005554,264.794861 
	C397.005371,267.960083 397.355255,271.181396 396.862732,274.268188 
	C396.594177,275.951385 394.896332,277.406525 393.843109,278.964539 
	C392.576416,277.384491 390.586975,275.959412 390.207428,274.189148 
	C389.592529,271.321472 390.031769,268.227203 390.030579,265.228607 
	C390.028076,258.898163 389.890350,252.563461 390.084686,246.238998 
	C390.186035,242.939270 388.961914,241.906860 385.736725,241.951828 
	C375.077148,242.100479 364.414215,242.008652 353.284546,242.017181 
M326.042999,199.499847 
	C326.044861,205.499313 325.916351,211.502258 326.077057,217.497467 
	C326.371521,228.484512 333.146118,235.034851 344.141571,235.058609 
	C361.306580,235.095718 378.471741,235.091843 395.636810,235.060715 
	C406.837708,235.040405 413.826538,228.347610 413.915436,217.179169 
	C414.059998,199.015320 413.893402,180.849091 414.013214,162.684891 
	C414.035095,159.368469 413.254883,157.954773 409.586609,157.973267 
	C383.256378,158.106064 356.924683,158.122101 330.594788,157.960571 
	C326.595062,157.936020 325.931976,159.532959 325.980286,163.004105 
	C326.144989,174.834045 326.043213,186.667694 326.042999,199.499847 
z"/>
    <path fill="#B3592D" opacity="1.000000" stroke="none"
          d="
M357.082825,336.662445 
	C362.755157,340.194489 363.597046,345.308167 362.556030,350.865417 
	C360.719696,360.668457 358.265381,370.369202 356.807922,380.221924 
	C356.343872,383.358795 357.231201,388.725250 359.232269,389.777374 
	C363.484344,392.013153 367.010315,388.211029 369.243103,384.624268 
	C376.784393,372.509674 376.966003,359.025879 375.544281,345.473297 
	C375.229248,342.470276 375.793793,340.708344 378.027283,339.166870 
	C379.258331,338.317230 380.486511,337.436951 381.809723,336.751526 
	C392.638336,331.142303 400.099274,335.396271 400.957916,347.633911 
	C402.921631,375.621796 384.743439,399.866455 357.282166,405.524994 
	C353.605164,406.282654 349.601013,406.254425 345.862793,405.747070 
	C338.024231,404.683136 332.800812,398.886444 333.291382,390.273590 
	C333.768951,381.888947 335.911743,373.593994 337.410919,365.275452 
	C337.940796,362.335449 339.051422,359.467529 339.284760,356.518280 
	C339.436829,354.595795 339.053833,351.993744 337.831390,350.820496 
	C336.996307,350.018982 334.290253,351.104492 332.442017,351.457886 
	C331.865051,351.568237 331.357727,352.042847 330.690704,352.423676 
	C331.621613,340.094482 344.621552,332.257874 357.082825,336.662445 
z"/>
    <path fill="#B3592E" opacity="1.000000" stroke="none"
          d="
M227.518295,402.619171 
	C214.632935,393.372650 210.905685,380.436218 216.082352,363.817688 
	C222.332092,343.754303 244.819748,331.093079 264.600525,335.466766 
	C278.447052,338.528320 284.668213,353.534027 276.033813,366.411469 
	C268.610107,377.483246 255.951859,381.144775 243.517349,376.064392 
	C242.480225,375.640625 241.425201,375.260681 240.311646,374.834839 
	C239.375290,385.674805 248.854675,392.983185 260.070923,389.413483 
	C266.022217,387.519379 271.329407,383.601379 276.697113,380.720551 
	C278.015381,387.605743 273.626404,396.659882 265.281586,401.034912 
	C253.198441,407.369843 240.615372,408.551361 227.518295,402.619171 
M242.267868,355.017487 
	C241.545181,357.225677 240.781082,359.421356 240.108780,361.644775 
	C238.871948,365.735199 240.405396,367.668152 244.665863,368.409027 
	C252.958862,369.851135 260.697083,362.463348 260.090240,353.316010 
	C259.774597,348.557800 256.500610,345.426331 252.106491,347.096985 
	C248.551453,348.448608 245.779831,351.860779 242.267868,355.017487 
z"/>
    <path fill="#B3592D" opacity="1.000000" stroke="none"
          d="
M426.048370,342.010010 
	C435.907776,335.124756 446.515717,333.667908 457.760071,335.582764 
	C473.977936,338.344543 477.214386,355.861053 469.043579,367.038391 
	C460.566803,378.634277 448.634491,381.145233 433.574982,374.550629 
	C432.730316,385.385101 441.720856,393.127838 453.720062,389.330322 
	C459.640656,387.456512 464.899963,383.493286 470.578705,380.410248 
	C471.153961,387.066254 468.149017,392.894867 463.090973,397.726349 
	C453.587006,406.804779 432.809570,409.243744 421.322052,402.837738 
	C408.066040,395.445557 403.517822,377.470673 410.599823,360.918091 
	C413.894104,353.218536 418.828491,346.923950 426.048370,342.010010 
M450.603973,363.017822 
	C451.461578,361.055573 452.500824,359.150146 453.136719,357.118469 
	C454.257233,353.538574 454.158447,349.383209 450.552246,347.989960 
	C447.812744,346.931580 443.327759,347.303528 441.024292,348.975037 
	C438.055206,351.129547 435.991791,355.005371 434.487823,358.543518 
	C433.443695,360.999878 432.799622,365.679993 434.073730,366.671234 
	C437.482025,369.322723 442.114044,369.718536 446.229431,367.299835 
	C447.739197,366.412567 448.858032,364.860107 450.603973,363.017822 
z"/>
    <path fill="#B3592D" opacity="1.000000" stroke="none"
          d="
M645.569092,375.417053 
	C646.810547,387.139740 655.052795,393.066681 666.226929,389.295593 
	C672.019958,387.340546 677.187866,383.533081 682.452332,380.663757 
	C684.061707,386.713135 679.765991,395.962219 671.641541,400.690582 
	C660.907104,406.937958 649.201965,408.225189 637.449646,404.397003 
	C624.822327,400.283844 618.634827,388.109009 620.033997,372.028168 
	C622.107483,348.195557 647.371338,330.358063 670.424316,335.515411 
	C685.823730,338.960602 689.595398,355.738647 681.430359,366.944366 
	C672.976929,378.545776 660.679565,381.308563 646.418213,374.696777 
	C645.825623,374.782227 645.697388,375.099640 645.569092,375.417053 
M651.831787,368.637207 
	C659.352234,368.527466 664.943970,363.790588 665.681519,355.955719 
	C665.926208,353.356293 664.876343,349.507629 663.017456,348.154114 
	C661.151794,346.795685 657.221375,347.024780 654.757874,347.991119 
	C649.323242,350.122894 647.375244,355.325928 646.096130,360.594086 
	C644.544495,366.984985 644.643005,367.008911 651.831787,368.637207 
z"/>
    <path fill="#B3592D" opacity="1.000000" stroke="none"
          d="
M287.937469,381.880737 
	C290.729126,367.767487 293.908325,354.156525 296.108612,340.389130 
	C297.244537,333.281555 296.970734,325.884552 296.718048,318.639832 
	C296.521118,312.993378 304.171356,306.933380 311.340820,307.712433 
	C317.037811,308.331482 321.719055,312.120209 321.814209,318.559784 
	C321.940491,327.105011 320.923004,335.754822 319.516968,344.213440 
	C317.638611,355.513397 314.881866,366.666077 312.585510,377.898956 
	C312.155365,380.003082 311.699371,382.248291 312.003815,384.318268 
	C312.364929,386.773560 313.062592,389.520020 314.596100,391.289581 
	C315.185059,391.969177 318.479614,390.304016 320.475403,389.726349 
	C321.251282,396.496765 314.132874,404.751343 306.062286,405.941315 
	C296.786133,407.309082 289.270813,401.723541 288.061584,392.266785 
	C287.643585,388.997986 287.945984,385.637024 287.937469,381.880737 
z"/>
    <path fill="#D7AEB0" opacity="1.000000" stroke="none"
          d="
M374.401306,89.648758 
	C381.366974,91.423126 387.916901,93.073265 395.331482,94.941246 
	C398.075500,90.830276 401.366150,85.893486 404.665527,80.962532 
	C405.405151,79.857170 405.942627,78.320869 406.985657,77.783363 
	C408.562592,76.970726 410.501526,76.860634 412.286652,76.451996 
	C412.372437,78.216751 413.150024,80.369644 412.417480,81.675262 
	C409.983307,86.013680 406.977173,90.028542 404.251831,94.207565 
	C403.174011,95.860336 402.257751,97.618462 401.420715,99.064697 
	C405.381042,103.994576 409.304047,108.487396 412.784363,113.300316 
	C418.229034,120.829750 419.934631,129.654312 420.507172,138.693176 
	C420.721191,142.071854 418.392487,143.101883 415.222137,143.075623 
	C404.402252,142.985916 393.581177,143.043655 382.760559,143.043900 
	C363.949341,143.044312 345.138123,143.052277 326.326904,143.039108 
	C319.687653,143.034470 318.403076,141.155731 319.326721,134.484039 
	C321.265991,120.476723 327.930176,109.181236 339.113922,99.662148 
	C336.296875,95.583061 333.600098,91.681717 330.907532,87.777466 
	C329.774384,86.134422 328.230865,84.622047 327.636658,82.801323 
	C327.007690,80.874176 327.285797,78.650986 327.167694,76.557098 
	C329.243378,77.392784 332.077820,77.642822 333.256958,79.170502 
	C337.304321,84.414253 340.771790,90.105621 344.717316,96.011017 
	C353.950317,90.954422 363.716339,88.998611 374.401306,89.648758 
M345.547607,103.963188 
	C336.465454,110.275627 330.202606,118.614143 327.383240,129.388611 
	C326.034363,134.543518 326.875702,136.043060 331.252533,136.049911 
	C357.077393,136.090408 382.902740,136.001648 408.726929,136.138336 
	C412.953247,136.160690 413.641846,134.192032 412.753021,130.880676 
	C409.909607,120.287582 404.832214,111.004890 395.522552,104.795204 
	C379.412445,94.049477 362.850616,93.972214 345.547607,103.963188 
z"/>
    <path fill="#BB6C44" opacity="1.000000" stroke="none"
          d="
M351.301117,447.065369 
	C348.325714,451.665161 346.512665,452.125671 341.212189,449.373169 
	C343.382355,448.765900 344.903748,448.340210 346.984009,447.758118 
	C345.361328,447.025604 343.465881,446.776245 343.060028,445.864075 
	C342.137421,443.790497 340.814758,440.547852 341.726562,439.324066 
	C343.060486,437.533691 346.158386,436.599854 348.612915,436.345032 
	C349.497528,436.253174 351.181091,439.053009 351.618164,440.759216 
	C352.086700,442.588135 351.516846,444.683044 351.301117,447.065369 
z"/>
    <path fill="#BC714A" opacity="1.000000" stroke="none"
          d="
M380.559937,445.074158 
	C380.380463,440.200836 380.380463,435.709045 380.380463,431.217285 
	C381.045959,431.113281 381.711456,431.009308 382.376984,430.905334 
	C383.085999,432.498627 383.795044,434.091919 384.504089,435.685211 
	C384.667389,435.461334 384.830719,435.237427 384.994019,435.013519 
	C386.902679,436.424164 389.646027,437.472107 390.464691,439.356323 
	C391.161682,440.960541 390.168793,444.935608 388.994019,445.374695 
	C386.570862,446.280334 383.527557,445.526672 380.559937,445.074158 
z"/>
    <path fill="#BB6E47" opacity="1.000000" stroke="none"
          d="
M255.934250,441.100067 
	C256.657867,436.844849 259.360107,435.014435 262.687592,436.274445 
	C264.542480,436.976837 266.445190,439.901886 266.676361,442.006500 
	C267.046234,445.374725 264.085297,446.772614 261.042236,446.800446 
	C257.720642,446.830780 255.913177,444.927673 255.934250,441.100067 
z"/>
    <path fill="#B9683F" opacity="1.000000" stroke="none"
          d="
M410.990540,438.587524 
	C411.930786,438.033905 412.843903,437.073029 413.816711,437.008240 
	C416.098541,436.856323 419.157898,436.286957 420.498291,437.473206 
	C421.854126,438.673157 422.422455,442.180878 421.649658,443.934784 
	C420.990601,445.430511 417.662537,446.924774 416.019318,446.494446 
	C414.241852,446.028931 412.949219,443.401367 411.662048,441.564789 
	C411.278442,441.017548 411.624786,439.958740 411.322510,438.834534 
	C411.008301,438.534760 410.990540,438.587524 410.990540,438.587524 
z"/>
    <path fill="#BA6941" opacity="1.000000" stroke="none"
          d="
M515.276001,437.616974 
	C517.252625,440.624756 517.635071,443.659912 514.725098,445.346283 
	C512.911316,446.397369 509.652863,446.628143 507.942261,445.651520 
	C506.592041,444.880615 505.875488,441.589844 506.185638,439.624634 
	C506.769318,435.926331 510.448120,435.158325 515.276001,437.616974 
z"/>
    <path fill="#BA6941" opacity="1.000000" stroke="none"
          d="
M504.006653,440.279877 
	C504.501007,444.790131 502.019257,446.884827 498.541504,446.623657 
	C496.680603,446.483917 493.852905,444.188232 493.545410,442.488525 
	C493.217438,440.675476 494.833069,437.469574 496.514099,436.559113 
	C499.657227,434.856750 502.640015,436.132904 504.006653,440.279877 
z"/>
    <path fill="#B76339" opacity="1.000000" stroke="none"
          d="
M308.275818,432.867004 
	C309.181885,434.183624 309.840179,435.592865 310.859314,435.938568 
	C314.289581,437.102356 316.816803,443.081879 314.726685,445.816895 
	C314.418121,446.220673 313.355835,446.577026 313.087189,446.372131 
	C312.537506,445.952789 312.101379,445.176697 311.954773,444.477051 
	C311.568390,442.633606 311.361908,440.752441 311.083832,438.886292 
	C310.468658,438.905426 309.853516,438.924561 309.238342,438.943695 
	C308.960327,440.710236 308.844269,442.525177 308.336975,444.223267 
	C308.077637,445.091370 307.117401,445.750122 306.473938,446.503510 
	C306.006989,445.751495 305.168579,445.014801 305.136810,444.244843 
	C304.993683,440.777466 304.934753,437.292053 305.140930,433.830719 
	C305.250702,431.988159 305.731171,429.651642 308.275818,432.867004 
z"/>
    <path fill="#B8663D" opacity="1.000000" stroke="none"
          d="
M184.282715,444.277008 
	C179.433365,447.958038 177.431976,447.773712 174.737366,443.149048 
	C176.172928,443.379395 177.144867,443.609772 178.127319,443.670807 
	C179.011490,443.725739 179.907196,443.594788 181.248672,442.514008 
	C180.031891,441.683655 178.541153,441.070496 177.667236,439.968231 
	C176.559021,438.570618 175.175385,436.671906 175.374176,435.184998 
	C175.533249,433.995270 177.781830,432.473450 179.280167,432.241028 
	C180.873322,431.993896 182.675049,433.091614 184.385712,433.602081 
	C184.238297,434.145111 184.090897,434.688171 183.943481,435.231201 
	C182.320908,435.231201 180.698334,435.231201 178.775909,435.231201 
	C179.449615,439.261200 186.812653,438.473419 184.282715,444.277008 
z"/>
    <path fill="#B9683F" opacity="1.000000" stroke="none"
          d="
M252.308243,436.616028 
	C253.042587,436.552979 253.756943,436.566620 253.903244,436.861786 
	C256.049072,441.191559 250.514740,450.802673 245.765762,451.009766 
	C245.219742,451.033569 244.656036,450.651276 243.387375,450.208221 
	C245.147293,448.857117 246.360565,447.925659 247.716324,446.884796 
	C246.942886,443.462250 242.598755,440.654755 245.849213,435.273224 
	C247.313919,438.225708 248.389084,440.392975 249.710236,443.056122 
	C250.585403,440.698792 251.304733,438.761200 252.308243,436.616028 
z"/>
    <path fill="#B76339" opacity="1.000000" stroke="none"
          d="
M193.945892,445.783142 
	C193.463257,443.299927 193.179947,441.143982 192.896637,438.988037 
	C192.373901,438.936249 191.851181,438.884460 191.328461,438.832703 
	C190.514175,441.484344 189.699875,444.135986 188.885590,446.787628 
	C188.490723,446.624939 188.095871,446.462250 187.701004,446.299561 
	C187.701004,441.247101 187.701004,436.194611 187.701004,431.142151 
	C188.193573,431.090363 188.686142,431.038574 189.178711,430.986786 
	C189.626328,432.582428 190.073959,434.178070 190.518188,435.774078 
	C196.281494,436.398315 198.290314,439.121948 196.811829,444.699066 
	C196.636932,445.358795 195.067978,445.648956 193.945892,445.783142 
z"/>
    <path fill="#BA6941" opacity="1.000000" stroke="none"
          d="
M208.133942,445.740845 
	C205.328079,445.737946 202.344345,446.152222 200.339066,444.943359 
	C199.235672,444.278198 198.881592,440.283051 199.820129,438.879517 
	C200.846848,437.344116 203.767624,436.485901 205.835266,436.533478 
	C206.633774,436.551910 207.496948,439.826965 208.062424,441.699310 
	C208.419693,442.882294 208.280777,444.215088 208.133942,445.740845 
z"/>
    <path fill="#B8663D" opacity="1.000000" stroke="none"
          d="
M353.762482,442.580170 
	C354.403503,437.230927 356.583649,434.866150 359.886536,436.291351 
	C361.392609,436.941254 362.320007,439.467102 362.981354,441.329712 
	C363.350525,442.369446 362.636078,443.793884 362.290771,445.704193 
	C358.518768,448.050140 356.432220,447.544342 353.762482,442.580170 
z"/>
    <path fill="#B9683F" opacity="1.000000" stroke="none"
          d="
M432.020752,439.031250 
	C434.454346,436.624512 437.470093,434.051758 440.324341,437.266113 
	C441.900665,439.041290 441.406982,442.654633 441.835297,445.368530 
	C435.569702,448.524872 432.414154,446.619476 432.142090,439.376129 
	C432.051117,438.993408 432.020752,439.031250 432.020752,439.031250 
z"/>
    <path fill="#BB6C44" opacity="1.000000" stroke="none"
          d="
M318.277283,441.294373 
	C319.860535,440.469788 321.169586,439.902557 323.297638,438.980469 
	C321.043793,438.860229 319.652405,438.786011 318.261017,438.711792 
	C318.181244,438.185089 318.101501,437.658386 318.021729,437.131683 
	C320.062897,436.868134 322.575714,435.721191 324.054657,436.510773 
	C328.093597,438.667114 326.579376,442.657562 326.368835,446.142151 
	C316.604248,446.561279 316.578583,446.546692 318.277283,441.294373 
z"/>
    <path fill="#B8663D" opacity="1.000000" stroke="none"
          d="
M557.831055,442.182007 
	C558.046265,443.323273 558.572510,444.282501 559.177612,445.385468 
	C555.934814,447.523438 552.601013,447.872742 550.708069,444.813995 
	C549.647217,443.099915 550.025879,439.620483 551.135193,437.757996 
	C551.827026,436.596436 555.188232,436.502899 557.147461,436.910553 
	C557.803589,437.047058 557.828552,440.216736 557.831055,442.182007 
z"/>
    <path fill="#B8663D" opacity="1.000000" stroke="none"
          d="
M232.897461,436.004150 
	C236.668610,436.974121 238.661026,438.426727 236.057343,442.218567 
	C235.657776,442.800476 236.604492,444.306763 236.989410,445.588104 
	C233.529144,447.548950 230.313339,447.814026 228.108154,444.016510 
	C226.226440,440.776001 228.240295,437.401947 232.897461,436.004150 
z"/>
    <path fill="#B8663D" opacity="1.000000" stroke="none"
          d="
M397.935120,436.022278 
	C401.376801,437.055176 403.389893,438.424164 401.183777,442.070068 
	C400.770660,442.752838 401.548828,444.156464 402.047363,446.494202 
	C399.467468,446.332977 396.758972,446.835571 394.866638,445.819000 
	C393.512115,445.091278 392.243256,441.963318 392.750336,440.563324 
	C393.424011,438.703247 395.862946,437.482544 397.935120,436.022278 
z"/>
    <path fill="#B76339" opacity="1.000000" stroke="none"
          d="
M529.926025,443.154175 
	C531.703064,441.527710 533.432068,440.289703 535.294861,438.955902 
	C533.847595,438.841187 532.340820,438.721771 530.834045,438.602356 
	C530.761230,438.085815 530.688477,437.569275 530.615723,437.052734 
	C532.591064,436.798615 535.880554,435.735016 536.310486,436.432953 
	C538.015808,439.201294 538.827209,442.520294 539.262146,446.042938 
	C535.860046,444.679413 531.173340,449.925110 529.926025,443.154175 
z"/>
    <path fill="#B76339" opacity="1.000000" stroke="none"
          d="
M275.564941,441.076447 
	C275.769623,439.117004 275.961151,437.580109 276.152649,436.043213 
	C276.855316,436.018158 277.557983,435.993103 278.260651,435.968048 
	C278.549072,439.314819 278.837494,442.661591 279.226318,447.173248 
	C275.304413,446.255463 271.330811,446.465759 269.775574,444.628662 
	C268.331299,442.922638 269.467438,439.032013 269.467438,436.103271 
	C270.075012,436.047394 270.682587,435.991516 271.290161,435.935608 
	C271.578369,437.803711 271.754639,439.699371 272.204865,441.527588 
	C272.411407,442.366364 273.155945,443.072601 273.656525,443.838959 
	C274.288239,443.058960 274.919983,442.278961 275.564941,441.076447 
z"/>
    <path fill="#B8663D" opacity="1.000000" stroke="none"
          d="
M337.215881,436.638855 
	C338.063904,439.371735 338.674194,441.870331 338.949066,444.405304 
	C339.019714,445.057037 338.033661,445.823364 337.533051,446.536987 
	C336.986664,445.861359 336.146790,445.260254 335.952515,444.495270 
	C335.489838,442.673401 335.332275,440.774078 335.051483,438.906036 
	C334.435516,438.930450 333.819550,438.954834 333.203583,438.979248 
	C332.931946,440.762329 332.775848,442.574493 332.337402,444.315582 
	C332.134369,445.121857 331.381226,445.789642 330.877502,446.520233 
	C330.267456,445.743591 329.247925,445.032288 329.111908,444.179962 
	C327.975891,437.062439 329.223633,435.861053 337.215881,436.638855 
z"/>
    <path fill="#B8663D" opacity="1.000000" stroke="none"
          d="
M410.875854,438.219452 
	C410.990540,438.587524 411.008301,438.534760 411.022766,438.511353 
	C410.162994,440.144714 409.290619,441.802460 408.413879,443.457886 
	C407.871277,444.482361 407.322083,445.503296 406.775879,446.525848 
	C406.196686,445.555573 405.064026,444.540802 405.137726,443.622986 
	C405.403076,440.318817 402.275452,436.849243 405.381470,433.767334 
	C406.615356,432.542999 408.314819,431.787994 409.267181,431.167786 
	C409.932343,434.143372 410.346771,435.997375 410.875854,438.219452 
z"/>
    <path fill="#BB6C44" opacity="1.000000" stroke="none"
          d="
M477.895721,443.909546 
	C475.848022,447.471771 473.248260,447.462036 471.140930,446.417786 
	C470.792419,443.818298 470.347137,442.053528 470.395355,440.302307 
	C470.426849,439.159546 470.894745,437.360504 471.659485,437.043640 
	C473.317902,436.356445 475.292267,436.431671 477.137451,436.195160 
	C477.252686,436.753357 477.367950,437.311554 477.483215,437.869751 
	C476.466461,438.354980 475.449707,438.840240 474.703369,439.196442 
	C475.761139,440.603516 476.861877,442.067749 477.895721,443.909546 
z"/>
    <path fill="#B8663D" opacity="1.000000" stroke="none"
          d="
M216.534485,436.927673 
	C218.309647,438.359619 219.823029,440.048798 221.545837,441.971710 
	C222.297424,440.193512 223.127197,438.230347 223.956970,436.267151 
	C224.529358,436.339539 225.101746,436.411926 225.674133,436.484314 
	C225.400467,438.509430 225.536133,440.718994 224.731476,442.504852 
	C224.009018,444.108246 222.253052,445.245911 220.953033,446.589050 
	C219.694061,445.197540 218.094467,443.978882 217.275253,442.364227 
	C216.510239,440.856384 216.573868,438.928131 216.534485,436.927673 
z"/>
    <path fill="#BC714A" opacity="1.000000" stroke="none"
          d="
M459.752075,441.918884 
	C460.528198,443.466431 461.283173,444.617035 462.038116,445.767639 
	C461.795044,446.197968 461.551971,446.628265 461.308899,447.058563 
	C459.800262,446.412079 457.090607,445.915894 456.987701,445.093506 
	C456.501953,441.212189 452.674561,436.937103 458.120758,432.948944 
	C459.282715,434.416595 460.458984,435.902374 461.640564,437.394836 
	C461.028931,438.716644 460.379913,440.119293 459.752075,441.918884 
z"/>
    <path fill="#BB6C44" opacity="1.000000" stroke="none"
          d="
M368.293488,443.893982 
	C367.498016,441.951477 366.231628,440.243835 365.426697,438.341003 
	C365.323456,438.096924 367.537720,436.445251 368.830597,436.175781 
	C369.827271,435.968018 371.062683,436.905609 372.191956,437.333923 
	C371.346405,438.050903 370.500885,438.767914 370.157501,439.059082 
	C370.918213,440.961365 372.859894,443.467743 372.245758,444.751709 
	C370.799438,447.775726 367.825073,447.343262 364.957001,444.809296 
	C365.959717,444.562378 366.962433,444.315460 368.293488,443.893982 
z"/>
    <path fill="#B8663D" opacity="1.000000" stroke="none"
          d="
M490.962891,438.631042 
	C490.672791,441.058807 490.672791,443.240540 490.672791,446.510345 
	C489.981415,446.312195 487.647369,446.327789 487.108856,445.352203 
	C485.826996,443.029999 484.959564,440.266907 484.791687,437.626770 
	C484.700562,436.194183 486.384186,434.648712 487.860931,432.149414 
	C489.294373,434.784515 490.273682,436.584747 490.962891,438.631042 
z"/>
    <path fill="#BC714A" opacity="1.000000" stroke="none"
          d="
M541.285339,438.659027 
	C541.737549,436.649109 542.397705,434.922394 543.618530,431.729370 
	C545.260742,434.421967 546.247864,436.040375 547.435120,437.987061 
	C545.730591,439.952118 544.374023,442.757751 548.485413,445.452026 
	C545.188965,447.826355 543.381592,446.857086 542.412537,443.692505 
	C541.942932,442.159058 541.789734,440.528687 541.285339,438.659027 
z"/>
    <path fill="#B9683F" opacity="1.000000" stroke="none"
          d="
M296.456482,445.673340 
	C294.162689,442.484131 293.662811,439.325623 296.868622,437.191162 
	C298.415009,436.161560 300.957794,436.628571 303.914154,436.330872 
	C301.175934,438.864441 299.638336,440.287140 298.100708,441.709839 
	C299.660095,442.848114 301.219482,443.986359 303.400635,445.578461 
	C301.381348,447.543488 299.127014,447.081573 296.456482,445.673340 
z"/>
    <path fill="#BC714A" opacity="1.000000" stroke="none"
          d="
M524.187256,437.208771 
	C524.436096,434.892059 524.684875,433.023926 524.990662,430.727448 
	C528.822754,433.996704 528.870422,444.094299 524.745850,447.320312 
	C524.534668,443.667358 524.360962,440.662354 524.187256,437.208771 
z"/>
    <path fill="#B8663D" opacity="1.000000" stroke="none"
          d="
M432.069031,438.976868 
	C428.563904,438.419830 427.862946,440.381165 427.870514,443.370941 
	C427.873199,444.425110 426.928070,445.481689 426.415710,446.537201 
	C425.793579,445.404785 424.766754,444.316101 424.638489,443.130249 
	C424.412476,441.040344 424.734894,438.891113 424.887207,435.403381 
	C427.610535,436.632019 429.588135,437.524261 431.793243,438.723877 
	C432.020752,439.031250 432.051117,438.993408 432.069031,438.976868 
z"/>
    <path fill="#BC714A" opacity="1.000000" stroke="none"
          d="
M281.252716,441.180847 
	C281.430634,439.337555 281.607666,437.905182 281.780762,436.504669 
	C284.104889,436.504669 285.952118,436.504669 287.615326,436.504669 
	C286.516510,439.716339 285.474365,442.915924 284.224762,446.032349 
	C284.149963,446.218842 281.766174,445.993011 281.582916,445.521393 
	C281.126160,444.346161 281.319489,442.918243 281.252716,441.180847 
z"/>
    <path fill="#B3592D" opacity="1.000000" stroke="none"
          d="
M214.008514,441.678711 
	C213.710602,443.606201 213.412949,445.086426 213.115295,446.566650 
	C212.620819,446.495453 212.126358,446.424255 211.631897,446.353058 
	C211.631897,441.328857 211.631897,436.304626 211.631897,431.280426 
	C212.256119,431.240814 212.880325,431.201172 213.504547,431.161560 
	C213.672607,434.518188 213.840668,437.874817 214.008514,441.678711 
z"/>
    <path fill="#B76339" opacity="1.000000" stroke="none"
          d="
M449.714233,439.456909 
	C450.328186,438.117920 450.937897,437.185120 451.547607,436.252319 
	C452.030884,437.142059 452.545135,438.017120 452.978088,438.930695 
	C453.104767,439.197998 453.056427,439.586395 452.992493,439.899780 
	C452.541779,442.108704 452.066132,444.312561 451.598419,446.518036 
	C450.968964,444.299713 450.339478,442.081390 449.714233,439.456909 
z"/>
    <path fill="#ECE6D6" opacity="1.000000" stroke="none"
          d="
M578.885010,333.881836 
	C579.019592,333.546051 579.340698,333.395813 579.661804,333.245544 
	C579.703857,333.501587 579.745972,333.757629 579.619751,334.222534 
	C579.324890,334.310059 579.198242,334.188721 578.885010,333.881836 
z"/>
    <path fill="#ECE6D6" opacity="1.000000" stroke="none"
          d="
M164.334167,352.302887 
	C164.139435,352.857880 163.708572,353.194275 163.277710,353.530670 
	C163.269363,353.061798 163.261017,352.592926 163.433868,351.891479 
	C163.776077,351.800690 163.937057,351.942474 164.334167,352.302887 
z"/>
    <path fill="#ECE5D6" opacity="1.000000" stroke="none"
          d="
M326.043060,198.999893 
	C326.043213,186.667694 326.144989,174.834045 325.980286,163.004105 
	C325.931976,159.532959 326.595062,157.936020 330.594788,157.960571 
	C356.924683,158.122101 383.256378,158.106064 409.586609,157.973267 
	C413.254883,157.954773 414.035095,159.368469 414.013214,162.684891 
	C413.893402,180.849091 414.059998,199.015320 413.915436,217.179169 
	C413.826538,228.347610 406.837708,235.040405 395.636810,235.060715 
	C378.471741,235.091843 361.306580,235.095718 344.141571,235.058609 
	C333.146118,235.034851 326.371521,228.484512 326.077057,217.497467 
	C325.916351,211.502258 326.044861,205.499313 326.043060,198.999893 
z"/>
    <path fill="#EBE3D2" opacity="1.000000" stroke="none"
          d="
M242.464294,354.688202 
	C245.779831,351.860779 248.551453,348.448608 252.106491,347.096985 
	C256.500610,345.426331 259.774597,348.557800 260.090240,353.316010 
	C260.697083,362.463348 252.958862,369.851135 244.665863,368.409027 
	C240.405396,367.668152 238.871948,365.735199 240.108780,361.644775 
	C240.781082,359.421356 241.545181,357.225677 242.464294,354.688202 
z"/>
    <path fill="#EBE3D2" opacity="1.000000" stroke="none"
          d="
M450.379578,363.314453 
	C448.858032,364.860107 447.739197,366.412567 446.229431,367.299835 
	C442.114044,369.718536 437.482025,369.322723 434.073730,366.671234 
	C432.799622,365.679993 433.443695,360.999878 434.487823,358.543518 
	C435.991791,355.005371 438.055206,351.129547 441.024292,348.975037 
	C443.327759,347.303528 447.812744,346.931580 450.552246,347.989960 
	C454.158447,349.383209 454.257233,353.538574 453.136719,357.118469 
	C452.500824,359.150146 451.461578,361.055573 450.379578,363.314453 
z"/>
    <path fill="#EAE2D2" opacity="1.000000" stroke="none"
          d="
M651.439941,368.549683 
	C644.643005,367.008911 644.544495,366.984985 646.096130,360.594086 
	C647.375244,355.325928 649.323242,350.122894 654.757874,347.991119 
	C657.221375,347.024780 661.151794,346.795685 663.017456,348.154114 
	C664.876343,349.507629 665.926208,353.356293 665.681519,355.955719 
	C664.943970,363.790588 659.352234,368.527466 651.439941,368.549683 
z"/>
    <path fill="#ECE6D6" opacity="1.000000" stroke="none"
          d="
M645.716003,375.274719 
	C645.697388,375.099640 645.825623,374.782227 646.051270,374.652252 
	C646.148682,374.839691 645.862915,375.132416 645.716003,375.274719 
z"/>
    <path fill="#ECE6D6" opacity="1.000000" stroke="none"
          d="
M345.839508,103.748138 
	C362.850616,93.972214 379.412445,94.049477 395.522552,104.795204 
	C404.832214,111.004890 409.909607,120.287582 412.753021,130.880676 
	C413.641846,134.192032 412.953247,136.160690 408.726929,136.138336 
	C382.902740,136.001648 357.077393,136.090408 331.252533,136.049911 
	C326.875702,136.043060 326.034363,134.543518 327.383240,129.388611 
	C330.202606,118.614143 336.465454,110.275627 345.839508,103.748138 
z"/>
</svg>